<?xml version="1.0" encoding="UTF-8" standalone="no"?><!DOCTYPE svg PUBLIC "-//W3C//DTD SVG 1.1//EN" "http://www.w3.org/Graphics/SVG/1.1/DTD/svg11.dtd"><svg width="100%" height="100%" viewBox="0 0 1135 418" version="1.1" xmlns="http://www.w3.org/2000/svg" xmlns:xlink="http://www.w3.org/1999/xlink" xml:space="preserve" xmlns:serif="http://www.serif.com/" style="fill-rule:evenodd;clip-rule:evenodd;stroke-linejoin:round;stroke-miterlimit:2;"><g id="katman-1" serif:id="katman 1"><path d="M280.083,161.229c0,-26.906 -21.844,-48.75 -48.75,-48.75l-182.583,0c-26.906,0 -48.75,21.844 -48.75,48.75l-0,97.5c-0,26.906 21.844,48.75 48.75,48.75l182.583,-0c26.906,-0 48.75,-21.844 48.75,-48.75l0,-97.5Z" style="fill:#fff;"/><path d="M164.12,164.784c-2.029,-9.296 -9.608,-16.775 -18.937,-18.633c-15.921,-3.175 -29.829,8.858 -29.829,24.196c-0,13.625 11.041,24.666 24.708,24.666c15.442,0 27.563,-14.179 24.058,-30.229" style="fill:#ed4c4c;fill-rule:nonzero;"/><path d="M192.479,170.347c-0.033,13.633 -11.096,24.666 -24.729,24.666l-27.688,0c13.709,0 26.209,5.292 35.542,13.917c11.675,10.787 18.446,26.796 16.563,44.35c-2.58,24.033 -21.996,43.558 -46.013,46.267c-31.679,3.566 -58.55,-21.113 -58.55,-52.075l0,-0.05c-0.004,-3.325 2.713,-6.046 6.042,-6.046l15.766,-0c3.275,-0 5.934,2.654 5.942,5.929l0,0.167c0,15.345 14.008,27.416 29.996,24.12c9.35,-1.925 16.908,-9.487 18.833,-18.833c3.296,-15.987 -8.775,-29.996 -24.121,-29.996c-13.708,0 -26.208,-5.291 -35.541,-13.833c-11.713,-10.821 -18.475,-26.804 -16.613,-44.338c2.559,-24.045 21.95,-43.6 45.975,-46.35c1.238,-0.141 2.45,-0.162 3.675,-0.22l0,-0.134l54.921,0c0,8.596 -4.117,16.209 -10.471,21.034c6.567,8.766 10.471,19.633 10.471,31.425m46.563,-129.35c-26,-26 -62.167,-41.834 -102.042,-40.963c-76.625,1.629 -137,66.167 -137,142.796l-0,134.875c-0,76.375 61.083,138.454 137.083,140.042c78.875,1.625 143,-63.709 143,-142.588l0,-65.621l-27,0c-0.166,0 -0.333,0 -0.5,0.042c-1.041,0.208 -1.833,1 -2.041,2c-0.042,0.167 -0.042,0.333 -0.042,0.5l-0,3.083c-0,3.204 -2.583,5.829 -5.792,5.829l-1.375,0c-3.083,0 -5.625,-2.537 -5.625,-5.62l0,-12.792c0,-3.208 2.584,-5.792 5.792,-5.792l36.583,0l0,-56.75c0,-38.708 -15.708,-73.708 -41.041,-99.041" style="fill:#ed4c4c;fill-rule:nonzero;"/><path d="M484.48,216.534c-2.334,4.25 -5.459,7.5 -9.417,9.792c-3.958,2.25 -8.208,3.375 -12.708,3.375c-4.417,-0 -8.584,-1.167 -12.459,-3.5c-3.916,-2.292 -7.041,-5.625 -9.416,-10c-2.375,-4.375 -3.584,-9.417 -3.584,-15.25c0,-5.792 1.209,-10.834 3.584,-15.084c2.375,-4.208 5.5,-7.458 9.333,-9.666c3.833,-2.209 8,-3.292 12.542,-3.292c4.5,0 8.75,1.125 12.708,3.417c3.958,2.25 7.083,5.5 9.417,9.75c2.333,4.208 3.458,9.291 3.458,15.25c-0,5.916 -1.125,11 -3.458,15.208m3.458,-63.5l-0,13.792c-3.125,-4.542 -7.417,-8.25 -12.875,-11.084c-5.458,-2.833 -11.792,-4.25 -19,-4.25c-8.25,0 -15.708,2 -22.375,6.084c-6.667,4.083 -11.958,9.875 -15.875,17.416c-3.875,7.542 -5.833,16.209 -5.833,25.959c-0,9.875 1.958,18.621 5.833,26.208c3.917,7.625 9.208,13.5 15.958,17.708c6.75,4.167 14.167,6.25 22.292,6.25c7.083,0 13.375,-1.504 18.917,-4.5c5.5,-3.041 9.833,-6.791 12.958,-11.333l-0,14.958c-0,8.625 -2.167,15.042 -6.583,19.292c-4.417,4.204 -10.167,6.333 -17.25,6.333c-6.042,0 -11.209,-1.291 -15.417,-3.916c-4.25,-2.625 -7,-6.125 -8.292,-10.542l-24.208,0c1.167,11.042 6.125,19.75 14.875,26.125c8.792,6.417 20,9.583 33.708,9.583c10.25,0 18.959,-2.041 26.167,-6.166c7.167,-4.125 12.583,-9.709 16.167,-16.75c3.625,-7 5.416,-15 5.416,-23.959l0,-97.208l-24.583,0Z" style="fill:#fff;fill-rule:nonzero;"/><rect x="534.647" y="120.663" width="24.375" height="128.913" style="fill:#fff;"/><path d="M647.564,216.534c-2.338,4.25 -5.5,7.5 -9.421,9.792c-3.958,2.25 -8.204,3.375 -12.746,3.375c-4.375,-0 -8.542,-1.167 -12.421,-3.5c-3.912,-2.292 -7.037,-5.625 -9.416,-10c-2.375,-4.375 -3.584,-9.417 -3.584,-15.25c0,-5.792 1.209,-10.834 3.584,-15.084c2.379,-4.208 5.462,-7.458 9.295,-9.666c3.834,-2.209 8.042,-3.292 12.542,-3.292c4.542,0 8.788,1.125 12.746,3.417c3.921,2.25 7.083,5.5 9.421,9.75c2.291,4.208 3.454,9.291 3.454,15.25c-0,5.916 -1.163,11 -3.454,15.208m3.454,-63.5l-0,13.792c-3.246,-4.417 -7.579,-8.084 -12.954,-11c-5.417,-2.917 -11.713,-4.334 -18.917,-4.334c-8.254,0 -15.712,2 -22.375,6.084c-6.712,4.083 -12,9.875 -15.875,17.416c-3.879,7.542 -5.833,16.209 -5.833,25.959c-0,9.875 1.954,18.621 5.833,26.208c3.875,7.625 9.163,13.5 15.875,17.708c6.663,4.167 14.079,6.25 22.208,6.25c7.205,0 13.542,-1.458 19.084,-4.416c5.496,-2.959 9.829,-6.709 12.954,-11.25l-0,14.125l24.583,-0l0,-96.542l-24.583,0Z" style="fill:#fff;fill-rule:nonzero;"/><path d="M767.477,206.618c-3.292,-3.875 -7.204,-6.75 -11.746,-8.625c-4.546,-1.833 -10.296,-3.667 -17.254,-5.417c-6.833,-1.708 -11.912,-3.416 -15.167,-5.125c-3.25,-1.666 -4.875,-4.166 -4.875,-7.416c0,-2.875 1.213,-5.167 3.584,-6.792c2.375,-1.625 5.791,-2.417 10.208,-2.417c4.754,0 8.542,1.125 11.417,3.375c2.833,2.292 4.416,5.334 4.796,9.167l23.329,-0c-0.709,-9.75 -4.5,-17.5 -11.329,-23.25c-6.838,-5.75 -16.046,-8.625 -27.546,-8.625c-7.75,-0 -14.542,1.25 -20.292,3.833c-5.75,2.542 -10.162,6.042 -13.25,10.459c-3.042,4.375 -4.583,9.291 -4.583,14.625c-0,6.5 1.625,11.666 4.958,15.5c3.292,3.833 7.25,6.666 11.833,8.541c4.588,1.834 10.505,3.667 17.709,5.375c6.958,1.875 12.046,3.584 15.208,5.167c3.208,1.542 4.792,3.917 4.792,7.042c-0,2.912 -1.292,5.291 -3.917,7.125c-2.583,1.87 -6.25,2.791 -10.875,2.791c-4.75,0 -8.75,-1.208 -11.912,-3.625c-3.213,-2.458 -5.046,-5.541 -5.505,-9.25l-24.583,0c0.375,5.917 2.375,11.334 6.042,16.209c3.625,4.875 8.583,8.745 14.879,11.583c6.287,2.833 13.371,4.25 21.246,4.25c7.666,-0 14.375,-1.25 20.125,-3.754c5.75,-2.459 10.171,-5.917 13.25,-10.329c3.083,-4.417 4.625,-9.417 4.625,-15c-0.125,-6.375 -1.834,-11.542 -5.167,-15.417" style="fill:#fff;fill-rule:nonzero;"/><path d="M860.686,206.618c-3.291,-3.875 -7.204,-6.75 -11.75,-8.625c-4.541,-1.833 -10.291,-3.667 -17.25,-5.417c-6.833,-1.708 -11.916,-3.416 -15.166,-5.125c-3.25,-1.666 -4.875,-4.166 -4.875,-7.416c-0,-2.875 1.212,-5.167 3.583,-6.792c2.375,-1.625 5.792,-2.417 10.208,-2.417c4.75,0 8.542,1.125 11.417,3.375c2.833,2.292 4.417,5.334 4.792,9.167l23.333,-0c-0.708,-9.75 -4.5,-17.5 -11.329,-23.25c-6.838,-5.75 -16.046,-8.625 -27.546,-8.625c-7.75,-0 -14.542,1.25 -20.292,3.833c-5.75,2.542 -10.166,6.042 -13.25,10.459c-3.041,4.375 -4.583,9.291 -4.583,14.625c-0,6.5 1.625,11.666 4.958,15.5c3.292,3.833 7.25,6.666 11.834,8.541c4.583,1.834 10.504,3.667 17.708,5.375c6.958,1.875 12.042,3.584 15.208,5.167c3.209,1.542 4.792,3.917 4.792,7.042c-0,2.912 -1.292,5.291 -3.917,7.125c-2.583,1.87 -6.25,2.791 -10.875,2.791c-4.75,0 -8.75,-1.208 -11.916,-3.625c-3.209,-2.458 -5.042,-5.541 -5.5,-9.25l-24.584,0c0.375,5.917 2.375,11.334 6.042,16.209c3.625,4.875 8.629,8.745 14.879,11.583c6.288,2.833 13.371,4.25 21.246,4.25c7.667,-0 14.375,-1.25 20.125,-3.754c5.75,-2.459 10.167,-5.917 13.25,-10.329c3.083,-4.417 4.625,-9.417 4.625,-15c-0.125,-6.375 -1.833,-11.542 -5.167,-15.417" style="fill:#fff;fill-rule:nonzero;"/><path d="M905.563,226.324c-2.791,-2.75 -6.337,-4.121 -10.629,-4.121c-4.412,0 -8.037,1.371 -10.871,4.121c-2.879,2.708 -4.291,6.129 -4.291,10.167c-0,4.083 1.412,7.458 4.291,10.212c2.834,2.704 6.459,4.079 10.871,4.079c4.292,0 7.838,-1.375 10.629,-4.079c2.792,-2.754 4.167,-6.129 4.167,-10.212c-0,-4.038 -1.375,-7.459 -4.167,-10.167" style="fill:#fff;fill-rule:nonzero;"/><path d="M1009.06,162.534c-7.083,-7.25 -16.379,-10.875 -27.875,-10.875c-6.045,0 -11.587,1.167 -16.666,3.583c-5.042,2.375 -9.171,5.625 -12.417,9.834l0,-12.042l-24.417,0l0,96.542l24.417,-0l0,-53.334c0,-7.666 1.917,-13.541 5.829,-17.666c3.879,-4.125 9.171,-6.209 15.921,-6.209c6.625,0 11.833,2.084 15.667,6.209c3.829,4.125 5.746,10 5.746,17.666l-0,53.334l24.42,-0l0,-56.625c0,-13 -3.541,-23.167 -10.625,-30.417" style="fill:#fff;fill-rule:nonzero;"/><path d="M1105.73,216.994c-2.296,4.287 -5.421,7.5 -9.292,9.662c-3.921,2.125 -8.041,3.213 -12.462,3.213c-6.996,-0 -12.746,-2.459 -17.334,-7.379c-4.62,-4.955 -6.912,-11.996 -6.912,-21.163c-0,-9.208 2.371,-16.25 7.079,-21.208c4.713,-4.917 10.542,-7.375 17.5,-7.375c6.958,-0 12.875,2.458 17.671,7.375c4.833,4.958 7.25,12 7.25,21.208c-0,6.125 -1.167,11.375 -3.5,15.667m22.042,-41.834c-4.334,-7.541 -10.296,-13.375 -17.834,-17.5c-7.587,-4.125 -16,-6.166 -25.296,-6.166c-9.287,-0 -17.708,2.041 -25.245,6.166c-7.546,4.125 -13.5,9.959 -17.875,17.5c-4.334,7.584 -6.505,16.292 -6.505,26.167c0,9.833 2.13,18.579 6.338,26.125c4.246,7.538 10.083,13.375 17.542,17.5c7.416,4.121 15.791,6.163 25.079,6.163c9.375,-0 17.917,-2.042 25.5,-6.163c7.625,-4.125 13.671,-9.962 18.129,-17.5c4.454,-7.546 6.704,-16.292 6.704,-26.125c0,-9.875 -2.162,-18.583 -6.537,-26.167" style="fill:#fff;fill-rule:nonzero;"/></g></svg>