<svg id="katman_1" data-name="katman 1" xmlns="http://www.w3.org/2000/svg" viewBox="0 0 272.24 100.27"><defs><style>.cls-1{fill:#6876fb;}.cls-2{fill:#fff;}</style></defs><title>glassnomavi-logo-beyaz</title><path class="cls-1" d="M39.39,39.55a5.93,5.93,0,1,0-5.77,7.25A5.89,5.89,0,0,0,39.39,39.55Z"/><path class="cls-1" d="M57.37,9.84A33.47,33.47,0,0,0,32.88,0C14.49.4,0,15.89,0,34.28V66.65a33.61,33.61,0,0,0,32.9,33.61C51.83,100.65,67.22,85,67.22,66V50.29h-6.6a.62.62,0,0,0-.49.48.49.49,0,0,0,0,.12v.74A1.4,1.4,0,0,1,58.73,53H58.4a1.36,1.36,0,0,1-1.35-1.35V48.62a1.39,1.39,0,0,1,1.39-1.39h8.78V33.61A33.51,33.51,0,0,0,57.37,9.84Zm-11.17,31a5.94,5.94,0,0,1-5.94,5.92H33.62A12.59,12.59,0,1,1,21,59.39h0a1.46,1.46,0,0,1,1.46-1.45h3.78a1.43,1.43,0,0,1,1.43,1.42v0a5.93,5.93,0,0,0,7.19,5.79,5.86,5.86,0,0,0,4.52-4.52,5.92,5.92,0,0,0-5.78-7.2,12.58,12.58,0,0,1-1.49-25.08c.3,0,.59,0,.88-.06v0H46.2a6.31,6.31,0,0,1-2.52,5.05A12.5,12.5,0,0,1,46.2,40.88Z"/><path class="cls-2" d="M117.11,36.73V40A8.32,8.32,0,0,0,114,37.38a9.76,9.76,0,0,0-4.56-1,10.07,10.07,0,0,0-5.37,1.46A10.38,10.38,0,0,0,100.28,42a13.45,13.45,0,0,0-1.4,6.23,13.65,13.65,0,0,0,1.4,6.29,10.54,10.54,0,0,0,3.83,4.25,10,10,0,0,0,5.35,1.5A9.37,9.37,0,0,0,114,59.19a8.92,8.92,0,0,0,3.11-2.72v3.59a6.14,6.14,0,0,1-1.58,4.63,5.76,5.76,0,0,1-4.14,1.52,6.87,6.87,0,0,1-3.7-.94,4.34,4.34,0,0,1-2-2.53H99.89A8.52,8.52,0,0,0,103.46,69a13.36,13.36,0,0,0,8.09,2.3,12.44,12.44,0,0,0,6.28-1.48,9.62,9.62,0,0,0,3.88-4,12.33,12.33,0,0,0,1.3-5.75V36.73ZM116.28,52A6,6,0,0,1,114,54.32a6.08,6.08,0,0,1-3,.81,5.71,5.71,0,0,1-3-.84,6,6,0,0,1-2.26-2.4,7.53,7.53,0,0,1-.86-3.66,7.31,7.31,0,0,1,.86-3.62A6,6,0,0,1,108,42.29a5.91,5.91,0,0,1,3-.79,6,6,0,0,1,3,.82,5.86,5.86,0,0,1,2.26,2.34,8.46,8.46,0,0,1,0,7.31Z"/><path class="cls-2" d="M128.32,29V59.9h5.85V29Z"/><path class="cls-2" d="M156.25,36.73V40a9.28,9.28,0,0,0-3.11-2.64,9.42,9.42,0,0,0-4.54-1,10.07,10.07,0,0,0-5.37,1.46A10.24,10.24,0,0,0,139.42,42a13.45,13.45,0,0,0-1.4,6.23,13.65,13.65,0,0,0,1.4,6.29,10.5,10.5,0,0,0,3.81,4.25,9.86,9.86,0,0,0,5.33,1.5,9.56,9.56,0,0,0,4.58-1.06,8.67,8.67,0,0,0,3.11-2.7V59.9h5.9V36.73ZM155.42,52a6,6,0,0,1-2.26,2.35,6.09,6.09,0,0,1-3.06.81,5.7,5.7,0,0,1-3-.84,6,6,0,0,1-2.26-2.4,7.53,7.53,0,0,1-.86-3.66,7.31,7.31,0,0,1,.86-3.62,6,6,0,0,1,2.23-2.32,5.94,5.94,0,0,1,3-.79,6,6,0,0,1,3.06.82,5.93,5.93,0,0,1,2.26,2.34,8.46,8.46,0,0,1,0,7.31Z"/><path class="cls-2" d="M184.2,49.59a7.33,7.33,0,0,0-2.82-2.07,32.29,32.29,0,0,0-4.14-1.3A17.48,17.48,0,0,1,173.6,45a1.92,1.92,0,0,1-1.17-1.78,1.88,1.88,0,0,1,.86-1.63,5.23,5.23,0,0,1,5.19.23,3.09,3.09,0,0,1,1.15,2.2h5.6a7.7,7.7,0,0,0-2.72-5.58,10,10,0,0,0-6.61-2.07,11.82,11.82,0,0,0-4.87.92,7.43,7.43,0,0,0-3.18,2.51,6,6,0,0,0-1.1,3.51A5.47,5.47,0,0,0,167.94,47a7.37,7.37,0,0,0,2.84,2A30.79,30.79,0,0,0,175,50.36a21.27,21.27,0,0,1,3.65,1.24,1.79,1.79,0,0,1,1.15,1.69,2,2,0,0,1-.94,1.71,4.4,4.4,0,0,1-2.61.67,4.59,4.59,0,0,1-2.86-.87,3.22,3.22,0,0,1-1.32-2.22h-5.9a7.1,7.1,0,0,0,1.45,3.89,8.89,8.89,0,0,0,3.57,2.78,12.29,12.29,0,0,0,5.1,1,12,12,0,0,0,4.83-.9,7.23,7.23,0,0,0,3.18-2.48,6.14,6.14,0,0,0,1.11-3.6A5.67,5.67,0,0,0,184.2,49.59Z"/><path class="cls-2" d="M206.57,49.59a7.33,7.33,0,0,0-2.82-2.07,32.29,32.29,0,0,0-4.14-1.3A17.48,17.48,0,0,1,196,45a1.92,1.92,0,0,1-1.17-1.78,1.88,1.88,0,0,1,.86-1.63,5.23,5.23,0,0,1,5.19.23A3.09,3.09,0,0,1,202,44h5.6a7.7,7.7,0,0,0-2.72-5.58,10,10,0,0,0-6.61-2.07,11.82,11.82,0,0,0-4.87.92,7.43,7.43,0,0,0-3.18,2.51,6,6,0,0,0-1.1,3.51A5.47,5.47,0,0,0,190.31,47a7.37,7.37,0,0,0,2.84,2,30.79,30.79,0,0,0,4.25,1.29,21.27,21.27,0,0,1,3.65,1.24,1.79,1.79,0,0,1,1.15,1.69,2,2,0,0,1-.94,1.71,4.4,4.4,0,0,1-2.61.67,4.59,4.59,0,0,1-2.86-.87,3.22,3.22,0,0,1-1.32-2.22h-5.9A7.1,7.1,0,0,0,190,56.47a9,9,0,0,0,3.57,2.78,12.29,12.29,0,0,0,5.1,1,12,12,0,0,0,4.83-.9,7.23,7.23,0,0,0,3.18-2.48,6.14,6.14,0,0,0,1.11-3.6A5.67,5.67,0,0,0,206.57,49.59Z"/><path class="cls-2" d="M217.34,54.32a3.48,3.48,0,0,0-2.55-1,3.59,3.59,0,0,0-2.61,1,3.42,3.42,0,0,0,0,4.89,3.63,3.63,0,0,0,2.61,1,3.52,3.52,0,0,0,2.55-1,3.49,3.49,0,0,0,0-4.89Z"/><path class="cls-2" d="M242.18,39a8.93,8.93,0,0,0-6.69-2.61,9.18,9.18,0,0,0-4,.86,8,8,0,0,0-3,2.36V36.73h-5.86V59.9h5.86V47.1a5.91,5.91,0,0,1,1.4-4.24,5,5,0,0,1,3.82-1.49,4.88,4.88,0,0,1,3.76,1.49,6,6,0,0,1,1.38,4.24V59.9h5.86V46.31A10,10,0,0,0,242.18,39Z"/><path class="cls-2" d="M270.67,42a10.87,10.87,0,0,0-4.28-4.2,13.17,13.17,0,0,0-12.13,0A11,11,0,0,0,250,42a12.42,12.42,0,0,0-1.56,6.28,12.68,12.68,0,0,0,1.52,6.27,10.7,10.7,0,0,0,4.21,4.2,12.18,12.18,0,0,0,6,1.48,12.62,12.62,0,0,0,6.12-1.48,11.11,11.11,0,0,0,4.35-4.2,12.12,12.12,0,0,0,1.61-6.27A12.33,12.33,0,0,0,270.67,42Zm-5.29,10a5.62,5.62,0,0,1-2.23,2.32,6.16,6.16,0,0,1-3,.77A5.43,5.43,0,0,1,256,53.4a7.16,7.16,0,0,1-1.66-5.08,7.1,7.1,0,0,1,1.7-5.09,5.58,5.58,0,0,1,4.2-1.77,5.7,5.7,0,0,1,4.24,1.77,7,7,0,0,1,1.74,5.09A7.79,7.79,0,0,1,265.38,52.08Z"/></svg>