<svg xmlns="http://www.w3.org/2000/svg" xml:space="preserve" style="fill-rule:evenodd;clip-rule:evenodd;stroke-linejoin:round;stroke-miterlimit:2" viewBox="0 0 3950 1455">
  <path d="M975.273 561.412c0-93.688-76.063-169.751-169.751-169.751H169.751C76.063 391.661 0 467.724 0 561.412v339.502c0 93.688 76.063 169.751 169.751 169.751h635.771c93.688 0 169.751-76.063 169.751-169.751V561.412Z" style="fill:#fff"/>
  <path d="M571.481 573.792c-7.066-32.369-33.457-58.412-65.942-64.883-55.438-11.056-103.868 30.845-103.868 84.252 0 47.443 38.448 85.891 86.036 85.891 53.77 0 95.975-49.373 83.774-105.26" style="fill:#ed4c4c;fill-rule:nonzero"/>
  <path d="M670.228 593.161c-.116 47.472-38.637 85.891-86.109 85.891h-96.41c47.733 0 91.259 18.426 123.759 48.459 40.653 37.563 64.23 93.305 57.672 154.43-8.981 83.686-76.591 151.674-160.219 161.105-110.31 12.419-203.876-73.516-203.876-181.33v-.174c-.015-11.578 9.445-21.052 21.037-21.052h54.901c11.404 0 20.66 9.242 20.69 20.646v.58c0 53.436 48.778 95.467 104.447 83.991 32.558-6.703 58.877-33.036 65.58-65.579 11.476-55.67-30.556-104.448-83.991-104.448-47.734 0-91.26-18.426-123.759-48.169-40.784-37.679-64.331-93.334-57.846-154.387 8.908-83.729 76.432-151.818 160.089-161.394 4.309-.493 8.531-.566 12.796-.769v-.464h191.239c0 29.931-14.335 56.438-36.46 73.239 22.865 30.527 36.46 68.365 36.46 109.425m162.134-450.407C741.828 52.22 615.893-2.913 477.045.119 210.231 5.792 0 230.517 0 497.346v469.645c0 265.944 212.697 482.109 477.335 487.637 274.649 5.658 497.938-221.838 497.938-496.502V729.629h-94.016c-.581 0-1.161 0-1.741.145-3.628.726-6.384 3.483-7.11 6.965-.145.58-.145 1.16-.145 1.741v10.736c0 11.157-8.995 20.298-20.167 20.298h-4.788c-10.736 0-19.586-8.836-19.586-19.573V705.4a20.124 20.124 0 0 1 20.167-20.167h127.386V487.625c0-134.786-54.698-256.659-142.911-344.871" style="fill:#ed4c4c;fill-rule:nonzero"/>
  <path d="M1687 753.989c-8.125 14.799-19.006 26.116-32.79 34.096-13.783 7.834-28.582 11.752-44.251 11.752-15.379 0-29.888-4.063-43.381-12.187-13.638-7.98-24.52-19.587-32.79-34.821-8.27-15.234-12.477-32.79-12.477-53.102 0-20.167 4.207-37.723 12.477-52.521 8.27-14.654 19.152-25.971 32.5-33.661 13.348-7.689 27.856-11.461 43.671-11.461 15.669 0 30.468 3.917 44.251 11.897 13.784 7.834 24.665 19.151 32.79 33.95 8.125 14.654 12.042 32.354 12.042 53.102 0 20.602-3.917 38.303-12.042 52.956m12.042-221.112v48.024c-10.881-15.814-25.825-28.727-44.832-38.593-19.006-9.866-41.059-14.799-66.159-14.799-28.727 0-54.698 6.964-77.912 21.183-23.214 14.218-41.64 34.385-55.278 60.646-13.493 26.261-20.312 56.439-20.312 90.389 0 34.386 6.819 64.839 20.312 91.26 13.638 26.55 32.064 47.008 55.568 61.661 23.504 14.509 49.33 21.763 77.622 21.763 24.665 0 46.573-5.237 65.869-15.669 19.152-10.591 34.241-23.649 45.122-39.464v52.087c0 30.032-7.544 52.376-22.924 67.175-15.379 14.639-35.401 22.053-60.065 22.053-21.038 0-39.029-4.498-53.683-13.638-14.798-9.141-24.374-21.328-28.872-36.707h-84.295c4.062 38.448 21.328 68.771 51.796 90.969 30.613 22.343 69.641 33.37 117.375 33.37 35.691 0 66.014-7.109 91.114-21.473 24.955-14.363 43.817-33.805 56.294-58.325 12.623-24.374 18.861-52.231 18.861-83.424V532.877h-85.601Z" style="fill:#fff;fill-rule:nonzero"/>
  <path d="M1861.69 420.159h84.876v448.884h-84.876z" style="fill:#fff"/>
  <path d="M2254.87 753.989c-8.139 14.799-19.151 26.116-32.804 34.096-13.783 7.834-28.568 11.752-44.382 11.752-15.234 0-29.743-4.063-43.25-12.187-13.624-7.98-24.505-19.587-32.79-34.821-8.27-15.234-12.477-32.79-12.477-53.102 0-20.167 4.207-37.723 12.477-52.521 8.285-14.654 19.021-25.971 32.369-33.661 13.348-7.689 28.002-11.461 43.671-11.461 15.814 0 30.599 3.917 44.382 11.897 13.653 7.834 24.665 19.151 32.804 33.95 7.98 14.654 12.028 32.354 12.028 53.102 0 20.602-4.048 38.303-12.028 52.956m12.028-221.112v48.024c-11.302-15.379-26.391-28.147-45.108-38.303-18.861-10.156-40.783-15.089-65.869-15.089-28.742 0-54.712 6.964-77.912 21.183-23.373 14.218-41.784 34.385-55.278 60.646-13.507 26.261-20.312 56.439-20.312 90.389 0 34.386 6.805 64.839 20.312 91.26 13.494 26.55 31.905 47.008 55.278 61.661 23.2 14.509 49.025 21.763 77.332 21.763 25.085 0 47.153-5.078 66.449-15.379 19.137-10.301 34.226-23.359 45.108-39.173v49.184h85.601V532.877h-85.601ZM2672.42 719.46c-11.462-13.493-25.085-23.504-40.9-30.033-15.829-6.384-35.851-12.767-60.08-18.861-23.795-5.949-41.481-11.897-52.812-17.846-11.317-5.803-16.975-14.508-16.975-25.825 0-10.011 4.222-17.991 12.477-23.649 8.27-5.659 20.168-8.415 35.547-8.415 16.554 0 29.742 3.917 39.753 11.752 9.866 7.98 15.38 18.571 16.7 31.919h81.234c-2.467-33.95-15.669-60.937-39.449-80.959-23.809-20.021-55.873-30.032-95.917-30.032-26.986 0-50.635 4.352-70.657 13.348-20.022 8.85-35.387 21.037-46.138 36.416-10.591 15.234-15.959 32.355-15.959 50.926 0 22.633 5.658 40.624 17.265 53.972 11.462 13.348 25.245 23.214 41.205 29.743 15.974 6.384 36.576 12.767 61.662 18.716 24.229 6.529 41.944 12.477 52.956 17.991 11.172 5.368 16.685 13.638 16.685 24.519 0 10.142-4.498 18.426-13.638 24.81-8.995 6.515-21.763 9.721-37.868 9.721-16.54 0-30.468-4.208-41.48-12.623-11.186-8.56-17.57-19.296-19.166-32.209h-85.601c1.306 20.602 8.27 39.464 21.038 56.439 12.622 16.975 29.887 30.454 51.81 40.334 21.894 9.866 46.558 14.799 73.98 14.799 26.696 0 50.055-4.353 70.077-13.072 20.022-8.561 35.415-20.603 46.137-35.967 10.737-15.38 16.105-32.79 16.105-52.232-.435-22.198-6.384-40.189-17.991-53.682M2996.98 719.46c-11.462-13.493-25.086-23.504-40.915-30.033-15.814-6.384-35.836-12.767-60.065-18.861-23.795-5.949-41.495-11.897-52.812-17.846-11.317-5.803-16.975-14.508-16.975-25.825 0-10.011 4.222-17.991 12.477-23.649 8.27-5.659 20.167-8.415 35.547-8.415 16.539 0 29.742 3.917 39.753 11.752 9.866 7.98 15.379 18.571 16.685 31.919h81.249c-2.467-33.95-15.67-60.937-39.449-80.959-23.809-20.021-55.873-30.032-95.917-30.032-26.986 0-50.635 4.352-70.657 13.348-20.022 8.85-35.401 21.037-46.138 36.416-10.591 15.234-15.959 32.355-15.959 50.926 0 22.633 5.658 40.624 17.265 53.972 11.462 13.348 25.245 23.214 41.205 29.743 15.959 6.384 36.576 12.767 61.661 18.716 24.23 6.529 41.93 12.477 52.957 17.991 11.172 5.368 16.685 13.638 16.685 24.519 0 10.142-4.498 18.426-13.638 24.81-8.996 6.515-21.763 9.721-37.868 9.721-16.54 0-30.468-4.208-41.495-12.623-11.171-8.56-17.555-19.296-19.151-32.209h-85.601c1.306 20.602 8.27 39.464 21.037 56.439 12.623 16.975 30.048 30.454 51.811 40.334 21.893 9.866 46.558 14.799 73.98 14.799 26.696 0 50.054-4.353 70.076-13.072 20.022-8.561 35.402-20.603 46.138-35.967 10.736-15.38 16.105-32.79 16.105-52.232-.436-22.198-6.384-40.189-17.991-53.682M3153.24 788.079c-9.72-9.576-22.067-14.349-37.011-14.349-15.365 0-27.987 4.773-37.853 14.349-10.026 9.431-14.944 21.342-14.944 35.401 0 14.219 4.918 25.971 14.944 35.561 9.866 9.416 22.488 14.204 37.853 14.204 14.944 0 27.291-4.788 37.011-14.204 9.721-9.59 14.509-21.342 14.509-35.561 0-14.059-4.788-25.97-14.509-35.401M3513.64 565.957c-24.665-25.245-57.034-37.868-97.063-37.868-21.052 0-40.349 4.063-58.035 12.478-17.555 8.27-31.933 19.587-43.236 34.24v-41.93h-85.02v336.166h85.02V683.332c0-26.696 6.674-47.153 20.298-61.517 13.508-14.363 31.934-21.617 55.438-21.617 23.068 0 41.204 7.254 54.552 21.617 13.334 14.364 20.008 34.821 20.008 61.517v185.711h85.035V671.87c0-45.267-12.332-80.668-36.997-105.913M3850.24 755.59c-7.994 14.929-18.876 26.115-32.354 33.645-13.653 7.4-28.002 11.187-43.396 11.187-24.36 0-44.382-8.561-60.356-25.695-16.09-17.251-24.07-41.771-24.07-73.69 0-32.064 8.256-56.584 24.65-73.849 16.41-17.12 36.707-25.68 60.937-25.68 24.229 0 44.832 8.56 61.531 25.68 16.83 17.265 25.245 41.785 25.245 73.849 0 21.328-4.062 39.609-12.187 54.553m76.751-145.667c-15.089-26.261-35.851-46.573-62.097-60.937-26.421-14.363-55.714-21.473-88.082-21.473-32.34 0-61.662 7.11-87.908 21.473-26.276 14.364-47.009 34.676-62.243 60.937-15.089 26.405-22.648 56.729-22.648 91.114 0 34.241 7.414 64.694 22.068 90.969 14.784 26.247 35.111 46.573 61.082 60.937 25.825 14.349 54.987 21.458 87.327 21.458 32.645 0 62.387-7.109 88.793-21.458 26.551-14.364 47.603-34.69 63.127-60.937 15.51-26.275 23.345-56.728 23.345-90.969 0-34.385-7.53-64.709-22.764-91.114" style="fill:#fff;fill-rule:nonzero"/>
</svg>
