<?xml version="1.0" encoding="UTF-8" standalone="no"?><!DOCTYPE svg PUBLIC "-//W3C//DTD SVG 1.1//EN" "http://www.w3.org/Graphics/SVG/1.1/DTD/svg11.dtd"><svg width="100%" height="100%" viewBox="0 0 3950 1455" version="1.1" xmlns="http://www.w3.org/2000/svg" xmlns:xlink="http://www.w3.org/1999/xlink" xml:space="preserve" xmlns:serif="http://www.serif.com/" style="fill-rule:evenodd;clip-rule:evenodd;stroke-linejoin:round;stroke-miterlimit:2;"><path d="M975.273,561.412c-0,-93.688 -76.063,-169.751 -169.751,-169.751l-635.771,0c-93.688,0 -169.751,76.063 -169.751,169.751l-0,339.502c-0,93.688 76.063,169.751 169.751,169.751l635.771,0c93.688,0 169.751,-76.063 169.751,-169.751l-0,-339.502Z" style="fill:#fff;"/><path d="M571.481,573.792c-7.066,-32.369 -33.457,-58.412 -65.942,-64.883c-55.438,-11.056 -103.868,30.845 -103.868,84.252c0,47.443 38.448,85.891 86.036,85.891c53.77,0 95.975,-49.373 83.774,-105.26" style="fill:#ed4c4c;fill-rule:nonzero;"/><path d="M670.228,593.161c-0.116,47.472 -38.637,85.891 -86.109,85.891l-96.41,0c47.733,0 91.259,18.426 123.759,48.459c40.653,37.563 64.23,93.305 57.672,154.43c-8.981,83.686 -76.591,151.674 -160.219,161.105c-110.31,12.419 -203.876,-73.516 -203.876,-181.33l-0,-0.174c-0.015,-11.578 9.445,-21.052 21.037,-21.052l54.901,0c11.404,0 20.66,9.242 20.69,20.646l-0,0.58c-0,53.436 48.778,95.467 104.447,83.991c32.558,-6.703 58.877,-33.036 65.58,-65.579c11.476,-55.67 -30.556,-104.448 -83.991,-104.448c-47.734,-0 -91.26,-18.426 -123.759,-48.169c-40.784,-37.679 -64.331,-93.334 -57.846,-154.387c8.908,-83.729 76.432,-151.818 160.089,-161.394c4.309,-0.493 8.531,-0.566 12.796,-0.769l0,-0.464l191.239,-0c-0,29.931 -14.335,56.438 -36.46,73.239c22.865,30.527 36.46,68.365 36.46,109.425m162.134,-450.407c-90.534,-90.534 -216.469,-145.667 -355.317,-142.635c-266.814,5.673 -477.045,230.398 -477.045,497.227l0,469.645c0,265.944 212.697,482.109 477.335,487.637c274.649,5.658 497.938,-221.838 497.938,-496.502l-0,-228.497l-94.016,0c-0.581,0 -1.161,0 -1.741,0.145c-3.628,0.726 -6.384,3.483 -7.11,6.965c-0.145,0.58 -0.145,1.16 -0.145,1.741l0,10.736c0,11.157 -8.995,20.298 -20.167,20.298l-4.788,-0c-10.736,-0 -19.586,-8.836 -19.586,-19.573l-0,-44.541c-0,-11.172 8.995,-20.167 20.167,-20.167l127.386,-0l-0,-197.608c-0,-134.786 -54.698,-256.659 -142.911,-344.871" style="fill:#ed4c4c;fill-rule:nonzero;"/><path d="M1687,753.989c-8.125,14.799 -19.006,26.116 -32.79,34.096c-13.783,7.834 -28.582,11.752 -44.251,11.752c-15.379,-0 -29.888,-4.063 -43.381,-12.187c-13.638,-7.98 -24.52,-19.587 -32.79,-34.821c-8.27,-15.234 -12.477,-32.79 -12.477,-53.102c-0,-20.167 4.207,-37.723 12.477,-52.521c8.27,-14.654 19.152,-25.971 32.5,-33.661c13.348,-7.689 27.856,-11.461 43.671,-11.461c15.669,-0 30.468,3.917 44.251,11.897c13.784,7.834 24.665,19.151 32.79,33.95c8.125,14.654 12.042,32.354 12.042,53.102c0,20.602 -3.917,38.303 -12.042,52.956m12.042,-221.112l0,48.024c-10.881,-15.814 -25.825,-28.727 -44.832,-38.593c-19.006,-9.866 -41.059,-14.799 -66.159,-14.799c-28.727,0 -54.698,6.964 -77.912,21.183c-23.214,14.218 -41.64,34.385 -55.278,60.646c-13.493,26.261 -20.312,56.439 -20.312,90.389c0,34.386 6.819,64.839 20.312,91.26c13.638,26.55 32.064,47.008 55.568,61.661c23.504,14.509 49.33,21.763 77.622,21.763c24.665,0 46.573,-5.237 65.869,-15.669c19.152,-10.591 34.241,-23.649 45.122,-39.464l0,52.087c0,30.032 -7.544,52.376 -22.924,67.175c-15.379,14.639 -35.401,22.053 -60.065,22.053c-21.038,-0 -39.029,-4.498 -53.683,-13.638c-14.798,-9.141 -24.374,-21.328 -28.872,-36.707l-84.295,-0c4.062,38.448 21.328,68.771 51.796,90.969c30.613,22.343 69.641,33.37 117.375,33.37c35.691,0 66.014,-7.109 91.114,-21.473c24.955,-14.363 43.817,-33.805 56.294,-58.325c12.623,-24.374 18.861,-52.231 18.861,-83.424l0,-338.488l-85.601,0Z" style="fill:#515151;fill-rule:nonzero;"/><rect x="1861.69" y="420.159" width="84.876" height="448.884" style="fill:#515151;"/><path d="M2254.87,753.989c-8.139,14.799 -19.151,26.116 -32.804,34.096c-13.783,7.834 -28.568,11.752 -44.382,11.752c-15.234,-0 -29.743,-4.063 -43.25,-12.187c-13.624,-7.98 -24.505,-19.587 -32.79,-34.821c-8.27,-15.234 -12.477,-32.79 -12.477,-53.102c-0,-20.167 4.207,-37.723 12.477,-52.521c8.285,-14.654 19.021,-25.971 32.369,-33.661c13.348,-7.689 28.002,-11.461 43.671,-11.461c15.814,-0 30.599,3.917 44.382,11.897c13.653,7.834 24.665,19.151 32.804,33.95c7.98,14.654 12.028,32.354 12.028,53.102c-0,20.602 -4.048,38.303 -12.028,52.956m12.028,-221.112l-0,48.024c-11.302,-15.379 -26.391,-28.147 -45.108,-38.303c-18.861,-10.156 -40.783,-15.089 -65.869,-15.089c-28.742,0 -54.712,6.964 -77.912,21.183c-23.373,14.218 -41.784,34.385 -55.278,60.646c-13.507,26.261 -20.312,56.439 -20.312,90.389c0,34.386 6.805,64.839 20.312,91.26c13.494,26.55 31.905,47.008 55.278,61.661c23.2,14.509 49.025,21.763 77.332,21.763c25.085,0 47.153,-5.078 66.449,-15.379c19.137,-10.301 34.226,-23.359 45.108,-39.173l-0,49.184l85.601,0l-0,-336.166l-85.601,0Z" style="fill:#515151;fill-rule:nonzero;"/><path d="M2672.42,719.46c-11.462,-13.493 -25.085,-23.504 -40.9,-30.033c-15.829,-6.384 -35.851,-12.767 -60.08,-18.861c-23.795,-5.949 -41.481,-11.897 -52.812,-17.846c-11.317,-5.803 -16.975,-14.508 -16.975,-25.825c0,-10.011 4.222,-17.991 12.477,-23.649c8.27,-5.659 20.168,-8.415 35.547,-8.415c16.554,-0 29.742,3.917 39.753,11.752c9.866,7.98 15.38,18.571 16.7,31.919l81.234,-0c-2.467,-33.95 -15.669,-60.937 -39.449,-80.959c-23.809,-20.021 -55.873,-30.032 -95.917,-30.032c-26.986,-0 -50.635,4.352 -70.657,13.348c-20.022,8.85 -35.387,21.037 -46.138,36.416c-10.591,15.234 -15.959,32.355 -15.959,50.926c-0,22.633 5.658,40.624 17.265,53.972c11.462,13.348 25.245,23.214 41.205,29.743c15.974,6.384 36.576,12.767 61.662,18.716c24.229,6.529 41.944,12.477 52.956,17.991c11.172,5.368 16.685,13.638 16.685,24.519c0,10.142 -4.498,18.426 -13.638,24.81c-8.995,6.515 -21.763,9.721 -37.868,9.721c-16.54,-0 -30.468,-4.208 -41.48,-12.623c-11.186,-8.56 -17.57,-19.296 -19.166,-32.209l-85.601,0c1.306,20.602 8.27,39.464 21.038,56.439c12.622,16.975 29.887,30.454 51.81,40.334c21.894,9.866 46.558,14.799 73.98,14.799c26.696,-0 50.055,-4.353 70.077,-13.072c20.022,-8.561 35.415,-20.603 46.137,-35.967c10.737,-15.38 16.105,-32.79 16.105,-52.232c-0.435,-22.198 -6.384,-40.189 -17.991,-53.682" style="fill:#515151;fill-rule:nonzero;"/><path d="M2996.98,719.46c-11.462,-13.493 -25.086,-23.504 -40.915,-30.033c-15.814,-6.384 -35.836,-12.767 -60.065,-18.861c-23.795,-5.949 -41.495,-11.897 -52.812,-17.846c-11.317,-5.803 -16.975,-14.508 -16.975,-25.825c-0,-10.011 4.222,-17.991 12.477,-23.649c8.27,-5.659 20.167,-8.415 35.547,-8.415c16.539,-0 29.742,3.917 39.753,11.752c9.866,7.98 15.379,18.571 16.685,31.919l81.249,-0c-2.467,-33.95 -15.67,-60.937 -39.449,-80.959c-23.809,-20.021 -55.873,-30.032 -95.917,-30.032c-26.986,-0 -50.635,4.352 -70.657,13.348c-20.022,8.85 -35.401,21.037 -46.138,36.416c-10.591,15.234 -15.959,32.355 -15.959,50.926c-0,22.633 5.658,40.624 17.265,53.972c11.462,13.348 25.245,23.214 41.205,29.743c15.959,6.384 36.576,12.767 61.661,18.716c24.23,6.529 41.93,12.477 52.957,17.991c11.172,5.368 16.685,13.638 16.685,24.519c-0,10.142 -4.498,18.426 -13.638,24.81c-8.996,6.515 -21.763,9.721 -37.868,9.721c-16.54,-0 -30.468,-4.208 -41.495,-12.623c-11.171,-8.56 -17.555,-19.296 -19.151,-32.209l-85.601,0c1.306,20.602 8.27,39.464 21.037,56.439c12.623,16.975 30.048,30.454 51.811,40.334c21.893,9.866 46.558,14.799 73.98,14.799c26.696,-0 50.054,-4.353 70.076,-13.072c20.022,-8.561 35.402,-20.603 46.138,-35.967c10.736,-15.38 16.105,-32.79 16.105,-52.232c-0.436,-22.198 -6.384,-40.189 -17.991,-53.682" style="fill:#515151;fill-rule:nonzero;"/><path d="M3153.24,788.079c-9.72,-9.576 -22.067,-14.349 -37.011,-14.349c-15.365,-0 -27.987,4.773 -37.853,14.349c-10.026,9.431 -14.944,21.342 -14.944,35.401c-0,14.219 4.918,25.971 14.944,35.561c9.866,9.416 22.488,14.204 37.853,14.204c14.944,-0 27.291,-4.788 37.011,-14.204c9.721,-9.59 14.509,-21.342 14.509,-35.561c0,-14.059 -4.788,-25.97 -14.509,-35.401" style="fill:#515151;fill-rule:nonzero;"/><path d="M3513.64,565.957c-24.665,-25.245 -57.034,-37.868 -97.063,-37.868c-21.052,0 -40.349,4.063 -58.035,12.478c-17.555,8.27 -31.933,19.587 -43.236,34.24l0,-41.93l-85.02,0l-0,336.166l85.02,0l0,-185.711c0,-26.696 6.674,-47.153 20.298,-61.517c13.508,-14.363 31.934,-21.617 55.438,-21.617c23.068,-0 41.204,7.254 54.552,21.617c13.334,14.364 20.008,34.821 20.008,61.517l-0,185.711l85.035,0l0,-197.173c0,-45.267 -12.332,-80.668 -36.997,-105.913" style="fill:#515151;fill-rule:nonzero;"/><path d="M3850.24,755.59c-7.994,14.929 -18.876,26.115 -32.354,33.645c-13.653,7.4 -28.002,11.187 -43.396,11.187c-24.36,-0 -44.382,-8.561 -60.356,-25.695c-16.09,-17.251 -24.07,-41.771 -24.07,-73.69c0,-32.064 8.256,-56.584 24.65,-73.849c16.41,-17.12 36.707,-25.68 60.937,-25.68c24.229,-0 44.832,8.56 61.531,25.68c16.83,17.265 25.245,41.785 25.245,73.849c0,21.328 -4.062,39.609 -12.187,54.553m76.751,-145.667c-15.089,-26.261 -35.851,-46.573 -62.097,-60.937c-26.421,-14.363 -55.714,-21.473 -88.082,-21.473c-32.34,0 -61.662,7.11 -87.908,21.473c-26.276,14.364 -47.009,34.676 -62.243,60.937c-15.089,26.405 -22.648,56.729 -22.648,91.114c0,34.241 7.414,64.694 22.068,90.969c14.784,26.247 35.111,46.573 61.082,60.937c25.825,14.349 54.987,21.458 87.327,21.458c32.645,0 62.387,-7.109 88.793,-21.458c26.551,-14.364 47.603,-34.69 63.127,-60.937c15.51,-26.275 23.345,-56.728 23.345,-90.969c-0,-34.385 -7.53,-64.709 -22.764,-91.114" style="fill:#515151;fill-rule:nonzero;"/></svg>