<?xml version="1.0" encoding="UTF-8" standalone="yes"?>
<svg width="100%" height="100%" viewBox="0 0 231 231" version="1.2" xml:space="preserve" fill-rule="evenodd" stroke-linejoin="round" stroke-miterlimit="2" baseProfile="tiny-ps" xmlns="http://www.w3.org/2000/svg">
  <title>bimi-svg-tiny-12-ps</title>
  <rect id="favicon" x="0" y="0" width="230.359" height="230.422" fill="none"/>
  <g id="Plain--No-effects-">
    <path d="M160.831,157.352c0.001,0.929 -0.368,1.82 -1.024,2.476c-0.657,0.657 -1.547,1.026 -2.476,1.026l-131.696,0c-1.932,0 -3.498,-1.566 -3.5,-3.498c-0.01,-19.29 -0.062,-112.511 -0.072,-131.811c-0.001,-0.929 0.368,-1.82 1.024,-2.476c0.657,-0.657 1.547,-1.026 2.476,-1.026l131.695,-0c1.933,-0 3.499,1.566 3.5,3.498c0.011,19.29 0.063,112.511 0.073,131.811Zm-159.486,20.718c-0,1.933 1.567,3.5 3.5,3.5l173.245,0c1.933,0 3.5,-1.567 3.5,-3.5l-0,-173.243c-0,-1.933 -1.567,-3.5 -3.5,-3.5l-173.245,-0c-1.933,-0 -3.5,1.567 -3.5,3.5l-0,173.243Z" fill="#ed4c4c" fill-rule="nonzero"/>
    <g>
      <path d="M225.559,48.851c0.916,0 1.795,0.365 2.444,1.013c0.648,0.648 1.012,1.527 1.012,2.443l-0,173.332c-0,0.917 -0.364,1.796 -1.012,2.444c-0.649,0.648 -1.528,1.012 -2.444,1.012l-173.332,0c-0.917,0 -1.796,-0.364 -2.444,-1.012c-0.648,-0.648 -1.012,-1.527 -1.012,-2.444l-0,-173.332c-0,-0.916 0.364,-1.795 1.012,-2.443c0.648,-0.648 1.527,-1.013 2.444,-1.013l173.332,0Z" fill="#ed4c4c" fill-opacity="0.65"/>
      <path d="M48.771,195.83l-0,-143.514c-0,-0.919 0.365,-1.8 1.015,-2.45c0.65,-0.65 1.531,-1.015 2.45,-1.015l148.771,0l0.608,0.614l-150.337,148.896l-2.507,-2.531Z" fill="url(#_Radial1)"/>
    </g>
    <use x="48.771" y="48.851"/>
  </g>
  <defs>
    <radialGradient id="_Radial1" cx="0" cy="0" r="1" gradientUnits="userSpaceOnUse"/>
  </defs>
</svg>