<svg id="katman_1" data-name="katman 1" xmlns="http://www.w3.org/2000/svg" viewBox="0 0 67.22 100.27"><defs><style>.cls-1{fill:#ed4c4c;}</style></defs><title>glassnooranj-ikon</title><path class="cls-1" d="M39.39,39.55a5.93,5.93,0,1,0-5.77,7.25A5.89,5.89,0,0,0,39.39,39.55Z"/><path class="cls-1" d="M57.37,9.84A33.47,33.47,0,0,0,32.88,0C14.49.4,0,15.89,0,34.28V66.65a33.61,33.61,0,0,0,32.9,33.61C51.83,100.65,67.22,85,67.22,66V50.29h-6.6a.62.62,0,0,0-.49.48.49.49,0,0,0,0,.12v.74A1.4,1.4,0,0,1,58.73,53H58.4a1.36,1.36,0,0,1-1.35-1.35V48.62a1.39,1.39,0,0,1,1.39-1.39h8.78V33.61A33.51,33.51,0,0,0,57.37,9.84Zm-11.17,31a5.94,5.94,0,0,1-5.94,5.92H33.62A12.59,12.59,0,1,1,21,59.39h0a1.46,1.46,0,0,1,1.46-1.45h3.78a1.43,1.43,0,0,1,1.43,1.42v0a5.93,5.93,0,0,0,7.19,5.79,5.86,5.86,0,0,0,4.52-4.52,5.92,5.92,0,0,0-5.78-7.2,12.58,12.58,0,0,1-1.49-25.08c.3,0,.59,0,.88-.06v0H46.2a6.31,6.31,0,0,1-2.52,5.05A12.5,12.5,0,0,1,46.2,40.88Z"/></svg>