<?xml version="1.0" encoding="UTF-8" standalone="no"?><!DOCTYPE svg PUBLIC "-//W3C//DTD SVG 1.1//EN" "http://www.w3.org/Graphics/SVG/1.1/DTD/svg11.dtd"><svg width="100%" height="100%" viewBox="0 0 976 1455" version="1.1" xmlns="http://www.w3.org/2000/svg" xmlns:xlink="http://www.w3.org/1999/xlink" xml:space="preserve" xmlns:serif="http://www.serif.com/" style="fill-rule:evenodd;clip-rule:evenodd;stroke-linejoin:round;stroke-miterlimit:2;"><path d="M975.273,561.412c-0,-93.688 -76.063,-169.751 -169.751,-169.751l-635.771,0c-93.688,0 -169.751,76.063 -169.751,169.751l-0,339.502c-0,93.688 76.063,169.751 169.751,169.751l635.771,0c93.688,0 169.751,-76.063 169.751,-169.751l-0,-339.502Z" style="fill:#fff;"/><path d="M571.481,573.792c-7.066,-32.369 -33.457,-58.412 -65.942,-64.883c-55.438,-11.056 -103.868,30.845 -103.868,84.252c0,47.443 38.448,85.891 86.036,85.891c53.77,0 95.975,-49.373 83.774,-105.26" style="fill:#ed4c4c;fill-rule:nonzero;"/><path d="M670.228,593.161c-0.116,47.472 -38.637,85.891 -86.109,85.891l-96.41,0c47.733,0 91.259,18.426 123.759,48.459c40.653,37.563 64.23,93.305 57.672,154.43c-8.981,83.686 -76.591,151.674 -160.219,161.105c-110.31,12.419 -203.876,-73.516 -203.876,-181.33l-0,-0.174c-0.015,-11.578 9.445,-21.052 21.037,-21.052l54.901,0c11.404,0 20.66,9.242 20.69,20.646l-0,0.58c-0,53.436 48.778,95.467 104.447,83.991c32.558,-6.703 58.877,-33.036 65.58,-65.579c11.476,-55.67 -30.556,-104.448 -83.991,-104.448c-47.734,-0 -91.26,-18.426 -123.759,-48.169c-40.784,-37.679 -64.331,-93.334 -57.846,-154.387c8.908,-83.729 76.432,-151.818 160.089,-161.394c4.309,-0.493 8.531,-0.566 12.796,-0.769l0,-0.464l191.239,-0c-0,29.931 -14.335,56.438 -36.46,73.239c22.865,30.527 36.46,68.365 36.46,109.425m162.134,-450.407c-90.534,-90.534 -216.469,-145.667 -355.317,-142.635c-266.814,5.673 -477.045,230.398 -477.045,497.227l0,469.645c0,265.944 212.697,482.109 477.335,487.637c274.649,5.658 497.938,-221.838 497.938,-496.502l-0,-228.497l-94.016,0c-0.581,0 -1.161,0 -1.741,0.145c-3.628,0.726 -6.384,3.483 -7.11,6.965c-0.145,0.58 -0.145,1.16 -0.145,1.741l0,10.736c0,11.157 -8.995,20.298 -20.167,20.298l-4.788,-0c-10.736,-0 -19.586,-8.836 -19.586,-19.573l-0,-44.541c-0,-11.172 8.995,-20.167 20.167,-20.167l127.386,-0l-0,-197.608c-0,-134.786 -54.698,-256.659 -142.911,-344.871" style="fill:#ed4c4c;fill-rule:nonzero;"/></svg>