<svg width="40" height="37" viewBox="0 0 40 37" fill="none" xmlns="http://www.w3.org/2000/svg">
<g clip-path="url(#clip0_2019_984)">
<path fill-rule="evenodd" clip-rule="evenodd" d="M35.4558 3.61243V33.2781H3.7207V3.61243H35.4558Z" fill="#003045"/>
<path d="M23.3089 22.5503L11.8186 13.0266V21.5651L6.56589 17.1864V29.6657H19.9165H21.558H31.6257V15.5444L23.3089 22.5503ZM13.4601 16.6391L21.8863 23.645L19.6977 25.5059V27.9142H19.2599L13.4601 22.9882V16.6391ZM21.558 27.8047V26.1627L23.3089 24.6302L24.7315 25.8343V27.6953L21.558 27.8047ZM13.4601 27.9142V25.1775L16.6336 27.8047L13.4601 27.9142ZM8.20736 27.9142V20.7988L11.7092 23.7544V27.9142H8.20736ZM29.9842 27.9142H26.5919L26.4824 25.068L24.7315 23.645L29.9842 19.2663V27.9142Z" fill="#FFBE00"/>
<path d="M39.1765 37H0V0H39.1765V37ZM1.96977 35.0296H37.2067V1.97041H1.96977V35.0296Z" fill="#003045"/>
</g>
<defs>
<clipPath id="clip0_2019_984">
<rect width="40" height="37" fill="white"/>
</clipPath>
</defs>
</svg>
