<svg fill="none" height="400" viewBox="0 0 400 400" width="400" xmlns="http://www.w3.org/2000/svg"><path d="m144.009 28.015-143.9875156 143.987 39.9975156 39.998 143.987-143.9876z" fill="#101f41"/><path d="m128.015 156.001c10.61 10.605 24.997 16.562 39.997 16.562 15.001 0 29.388-5.957 39.998-16.562l47.998-47.997 103.994 103.994 39.998-39.997-143.992-143.9927z" fill="#3960bf"/><path d="m224.01 172.002c-14.852 14.851-34.995 23.193-55.997 23.193-21.003 0-41.146-8.342-55.997-23.193l-55.9974 55.997 143.9924 143.993 23.999-23.999-55.997-55.997 15.999-15.999 55.997 55.997 23.998-23.999-55.997-55.997 16-15.999 55.997 55.997 23.998-23.999-55.997-55.997 15.999-15.999 55.997 55.997 23.999-23.999-87.995-87.995z" fill="#101f41"/></svg>